<svg width="1500" height="296" viewBox="0 0 1500 296" fill="none" xmlns="http://www.w3.org/2000/svg">
<g clip-path="url(#clip0_37_2)">
<rect width="1500" height="296" fill="white"/>
<path opacity="0.24" d="M939.82 742.771C950.028 781.171 1021.62 756.34 1042.79 754.465C1062.66 752.7 1082.54 751.384 1102.43 750.537C1157.02 748.14 1211.72 749.023 1266.25 753.222C1279.17 754.195 1292.09 755.367 1305.01 756.736C1330.73 759.421 1356.8 762.881 1382.25 757.889C1384.27 757.493 1386.3 757.06 1388.33 756.538C1411.51 750.699 1434.41 735.905 1448.67 711.794C1451.27 707.397 1453.58 702.694 1455.54 697.739C1469.12 663.302 1464.54 621.766 1470.92 583.924C1476.62 550.137 1490.9 520.007 1499.66 487.355C1532.48 365.342 1483.78 231.489 1390.88 188.385C1387.75 186.926 1384.6 185.592 1381.41 184.385C1337.74 167.626 1290.39 173.176 1246.94 155.571C1201.08 136.956 1162.88 93.9064 1117.41 73.5979C1077.32 55.9022 1033.82 56.7492 994.138 75.9765C947.888 98.5916 906.042 161.572 920.832 223.434C926.951 249.005 942.015 270.809 944.018 297.496C947.901 349.556 902.145 386.425 895.916 438.088C888.892 496.437 932.274 540.604 959.371 587.763C966.849 600.719 973.42 615.261 975.382 631.299C980.555 673.772 932.192 714.137 939.82 742.771Z" fill="#C0D2BA"/>
<path d="M1400.72 295.983C1392.21 289.838 1382.41 285.441 1372.85 288C1363.29 290.559 1354.75 301.965 1355.71 314.669C1345.52 313.264 1336.4 322.977 1335.33 336.366C1334.57 345.88 1338.11 355.106 1344.41 359.936C1334.26 369.919 1334.65 391.867 1343.01 404.391C1351.37 416.915 1365.11 421.114 1377.76 419.888C1390.41 418.663 1402.47 412.788 1414.67 408.229C1417.93 406.662 1421.43 406.193 1424.88 406.86C1428.61 407.995 1431.53 411.581 1434.59 414.662C1448.52 428.7 1466.41 434.106 1483.6 429.457C1489.1 428.195 1494.26 425.078 1498.58 420.411C1504.38 413.563 1507.03 403.148 1507.92 392.948C1510.3 365.522 1499.6 335.356 1479.98 325.193C1479.98 325.193 1477.34 310.867 1476.64 309.209C1474.45 303.749 1471.4 298.956 1467.68 295.172C1461.03 288.378 1452.39 284.792 1444.48 281.423C1429.14 274.827 1405.11 265.583 1400.72 295.965V295.983Z" fill="url(#paint0_linear_37_2)"/>
<g clip-path="url(#clip1_37_2)">
<path opacity="0.24" d="M304.468 -315.019C330.248 -324.247 351.645 -245.743 360.936 -225.192C369.651 -205.902 378.617 -186.82 387.843 -167.952C413.123 -116.142 440.233 -65.8265 469.053 -17.2912C475.872 -5.77552 482.799 5.64361 489.827 16.9535C503.806 39.5105 518.373 62.0084 528.058 88.0486C528.825 90.1126 529.579 92.2069 530.285 94.345C538.409 118.698 541.54 147.144 535.414 172.107C534.3 176.666 532.873 181.095 531.143 185.328C519.094 214.695 494.353 230.668 476.951 255.012C461.413 276.745 452.038 304.665 438.611 328.697C388.466 418.55 292.215 438.541 223.628 373.349C221.314 371.158 219.055 368.88 216.851 366.515C186.508 334.163 166.465 287.537 135.769 255.801C103.352 222.316 61.4257 207.843 28.2837 175.552C-0.82387 146.978 -21.5459 106.206 -30.4434 60.036C-40.7045 6.11967 -26.9465 -63.3649 13.7793 -79.7658C30.6158 -86.5396 49.7663 -83.1813 65.2044 -94.3174C95.3075 -116.064 93.0114 -176.462 117.977 -207.396C146.178 -242.323 191.234 -223.583 229.983 -221.407C240.645 -220.779 251.725 -221.763 261.372 -227.752C286.907 -243.634 285.237 -308.153 304.468 -315.019Z" fill="#C0D2BA"/>
<path d="M396.789 95.0179C382.475 86.2759 365.837 83.4704 350.757 89.3759C335.665 95.2814 322.531 110.657 317.717 130.358C316.383 135.814 315.628 141.642 313.068 146.338C309.764 152.321 304.123 155.096 299.722 159.746C286.034 174.207 288.429 205.13 301.515 220.537C314.602 235.928 334.319 237.866 351.3 231.976C369.094 258.202 398.924 269.083 424.471 258.667C429.451 268.571 440.354 270.726 448.874 266.711C457.393 262.712 464.072 254.032 470.456 245.616L489.938 219.948C500.829 205.595 511.839 191.025 519.556 173.494C527.273 155.948 531.391 134.76 527.462 115.214C521.184 84.0904 496.9 65.5524 473.205 73.7984C467.99 75.6119 463.081 78.6499 458.691 82.7884C456.202 61.8169 442.95 58.8564 427.764 63.0104C423.988 64.0334 390.782 91.3444 396.789 95.0334V95.0179Z" fill="url(#paint1_linear_37_2)"/>
<path d="M82.9322 -10.723C90.2482 -16.0085 98.6734 -19.7905 106.898 -17.5895C115.123 -15.3885 122.462 -5.57702 121.636 5.35048C130.404 4.14148 138.251 12.496 139.171 24.0125C139.82 32.1965 136.776 40.1325 131.359 44.2865C140.091 52.8735 139.749 71.7525 132.563 82.525C125.377 93.2975 113.553 96.909 102.674 95.855C91.794 94.801 81.4218 89.748 70.9316 85.8265C68.1232 84.478 65.1142 84.075 62.1524 84.6485C58.9428 85.625 56.4294 88.7095 53.798 91.36C41.821 103.434 26.4338 108.084 11.6484 104.085C6.91662 103 2.47982 100.319 -1.23718 96.3045C-6.22858 90.4145 -8.50598 81.4555 -9.27298 72.6825C-11.3144 49.0915 -2.11038 23.1445 14.7636 14.4025C14.7636 14.4025 17.0292 2.07996 17.631 0.653957C19.519 -4.04254 22.1386 -8.16553 25.3364 -11.4205C31.0594 -17.264 38.4934 -20.3485 45.2902 -23.247C58.4826 -28.92 79.1562 -36.8715 82.9322 -10.7385V-10.723Z" fill="url(#paint2_linear_37_2)"/>
<path d="M195.432 159.371C195.432 159.371 211.924 161.645 210.703 166.318C209.469 170.993 202.648 176.422 193.053 182.908L194.021 187.961C194.021 187.961 220.078 176.553 221.965 165.093C223.043 158.312 220.905 151.419 216.2 146.436L195.443 159.356L195.43 159.358L195.432 159.371Z" fill="#C0D2BA"/>
<path d="M189.238 142.796C189.238 142.796 179.081 150.571 177.519 152.244C175.956 153.916 176.546 158.681 181.276 163.209C188.392 170.005 193.306 167.471 193.306 167.471L202.542 155.263L189.251 142.795L189.238 142.796Z" fill="#C0D2BA"/>
<path d="M189.238 142.796C189.238 142.796 179.081 150.571 177.519 152.244C175.956 153.916 176.546 158.681 181.276 163.209C188.392 170.005 193.306 167.471 193.306 167.471L202.542 155.263L189.251 142.795L189.238 142.796Z" fill="url(#paint3_linear_37_2)"/>
<path d="M181.401 150.722C189.356 132.821 200.844 116.72 215.191 103.416C239.349 80.7573 276.738 61.6615 290.278 64.2581C303.818 66.8548 290.941 99.8682 240.169 136.059C239.081 136.812 231.812 142.041 230.66 142.708L194.783 163.06C194.783 163.06 187.654 163.544 181.401 150.722Z" fill="#C0D2BA"/>
<path d="M181.811 150.722C189.765 132.821 201.254 116.72 215.6 103.416C239.758 80.7574 277.147 61.6615 290.687 64.2582C304.227 66.8548 291.35 99.8683 240.579 136.059C239.49 136.812 232.221 142.041 231.069 142.708L195.192 163.06C195.192 163.06 188.064 163.544 181.811 150.722Z" fill="url(#paint4_linear_37_2)"/>
<path d="M200.078 119.972C200.078 119.972 186.964 109.675 174.493 117.019C162.023 124.364 146.472 154.798 146.472 154.798L153.04 154.393C153.04 154.393 172.356 131.072 176.483 132.284C180.609 133.496 182.616 147.79 182.616 147.79C182.616 147.79 191.573 145.535 196.799 134.106C202.025 122.677 200.091 119.971 200.091 119.971L200.078 119.972Z" fill="#C0D2BA"/>
<path d="M200.078 119.972C200.078 119.972 186.964 109.675 174.493 117.019C162.023 124.364 146.472 154.798 146.472 154.798L153.04 154.393C153.04 154.393 172.356 131.072 176.483 132.284C180.609 133.496 182.616 147.79 182.616 147.79C182.616 147.79 191.573 145.535 196.799 134.106C202.025 122.677 200.091 119.971 200.091 119.971L200.078 119.972Z" fill="url(#paint5_linear_37_2)"/>
<path d="M311.338 455.59C259.204 459.986 207.247 466.778 155.744 475.96C143.534 478.121 131.341 480.425 119.178 482.872C94.9389 487.716 70.44 493.162 45.8022 492.395C43.8497 492.334 41.881 492.248 39.9046 492.096C17.3474 490.459 -5.70523 482.28 -21.3364 466.356C-23.5835 390.809 13.2676 337.496 28.6995 311.207C54.6219 267.088 167.129 156.819 179.336 151.723C191.432 146.694 188.946 152.195 188.946 152.195L193.267 167.476C191.002 169.471 12.4707 327.283 112.98 400.766C165.849 439.423 243.155 452.625 311.325 455.591L311.338 455.59Z" fill="url(#paint6_linear_37_2)"/>
<path d="M46.7163 369.031C29.7481 430.912 82.5191 459.778 155.746 475.973C143.536 478.134 131.343 480.438 119.18 482.885C94.9405 487.73 70.4415 493.175 45.8037 492.409C28.9766 464.128 20.0406 437.452 18.5368 418.012C9.94647 310.966 176.767 154.166 179.351 151.735L193.275 167.435C191.282 168.375 87.7447 219.29 46.7148 369.018L46.7163 369.031Z" fill="url(#paint7_linear_37_2)"/>
<path d="M267.361 100.889C271.397 100.412 274.281 96.7408 273.802 92.6896C273.324 88.6384 269.663 85.741 265.627 86.2181C261.591 86.6951 258.707 90.3661 259.186 94.4173C259.665 98.4685 263.325 101.366 267.361 100.889Z" fill="url(#paint8_linear_37_2)"/>
</g>
</g>
<defs>
<linearGradient id="paint0_linear_37_2" x1="1437.73" y1="393.759" x2="1329.56" y2="307.993" gradientUnits="userSpaceOnUse">
<stop offset="0.02" stop-color="white" stop-opacity="0"/>
<stop offset="0.32" stop-color="white" stop-opacity="0.39"/>
<stop offset="0.66" stop-color="white" stop-opacity="0.68"/>
<stop offset="1" stop-color="white"/>
</linearGradient>
<linearGradient id="paint1_linear_37_2" x1="430.985" y1="206.478" x2="332.58" y2="73.8178" gradientUnits="userSpaceOnUse">
<stop offset="0.02" stop-color="white" stop-opacity="0"/>
<stop offset="0.32" stop-color="white" stop-opacity="0.39"/>
<stop offset="0.68" stop-color="white" stop-opacity="0.68"/>
<stop offset="1" stop-color="white"/>
</linearGradient>
<linearGradient id="paint2_linear_37_2" x1="51.0958" y1="73.38" x2="144.135" y2="-0.382203" gradientUnits="userSpaceOnUse">
<stop offset="0.02" stop-color="white" stop-opacity="0"/>
<stop offset="0.32" stop-color="white" stop-opacity="0.39"/>
<stop offset="0.66" stop-color="white" stop-opacity="0.68"/>
<stop offset="1" stop-color="white"/>
</linearGradient>
<linearGradient id="paint3_linear_37_2" x1="177.282" y1="159.15" x2="201.249" y2="152.328" gradientUnits="userSpaceOnUse">
<stop stop-color="#231F20" stop-opacity="0"/>
<stop offset="0.95" stop-color="#231F20"/>
</linearGradient>
<linearGradient id="paint4_linear_37_2" x1="232.539" y1="102.41" x2="265.705" y2="143.395" gradientUnits="userSpaceOnUse">
<stop offset="0.02" stop-color="white" stop-opacity="0"/>
<stop offset="0.32" stop-color="white" stop-opacity="0.39"/>
<stop offset="0.68" stop-color="white" stop-opacity="0.68"/>
<stop offset="1" stop-color="white"/>
</linearGradient>
<linearGradient id="paint5_linear_37_2" x1="163.905" y1="119.798" x2="202.121" y2="191.073" gradientUnits="userSpaceOnUse">
<stop stop-color="#231F20" stop-opacity="0"/>
<stop offset="0.95" stop-color="#231F20"/>
</linearGradient>
<linearGradient id="paint6_linear_37_2" x1="-36.2775" y1="339.952" x2="293.068" y2="301.023" gradientUnits="userSpaceOnUse">
<stop offset="0.02" stop-color="white" stop-opacity="0"/>
<stop offset="0.32" stop-color="white" stop-opacity="0.39"/>
<stop offset="0.68" stop-color="white" stop-opacity="0.68"/>
<stop offset="1" stop-color="white"/>
</linearGradient>
<linearGradient id="paint7_linear_37_2" x1="167.853" y1="394.014" x2="5.5046" y2="180.096" gradientUnits="userSpaceOnUse">
<stop offset="0.02" stop-color="white" stop-opacity="0"/>
<stop offset="0.32" stop-color="white" stop-opacity="0.39"/>
<stop offset="0.68" stop-color="white" stop-opacity="0.68"/>
<stop offset="1" stop-color="white"/>
</linearGradient>
<linearGradient id="paint8_linear_37_2" x1="276.275" y1="118.408" x2="262.571" y2="83.7594" gradientUnits="userSpaceOnUse">
<stop offset="0.02" stop-color="white" stop-opacity="0"/>
<stop offset="0.32" stop-color="white" stop-opacity="0.39"/>
<stop offset="0.68" stop-color="white" stop-opacity="0.68"/>
<stop offset="1" stop-color="white"/>
</linearGradient>
<clipPath id="clip0_37_2">
<rect width="1500" height="296" fill="white"/>
</clipPath>
<clipPath id="clip1_37_2">
<rect width="590" height="775" fill="white" transform="translate(-36 -298)"/>
</clipPath>
</defs>
</svg>
